<?xml version="1.0" encoding="utf-8"?>
<!-- Generator: Adobe Illustrator 24.3.0, SVG Export Plug-In . SVG Version: 6.00 Build 0)  -->
<svg version="1.1" id="Ebene_1" xmlns="http://www.w3.org/2000/svg" xmlns:xlink="http://www.w3.org/1999/xlink" x="0px" y="0px"
	 viewBox="0 0 2000 2000" style="enable-background:new 0 0 2000 2000;" xml:space="preserve">
<style type="text/css">
	.st0{fill:#FFFFFF;}
</style>
<g>
	<circle class="st0" cx="448.3" cy="449.3" r="337.3"/>
	<path class="st0" d="M1888,1551.7c0-78.3-26.7-150.4-71.5-207.6c-6-7.6-11.7-15.5-16.8-23.8c-58-92.7-91.5-202.3-91.5-319.8
		c0-117.6,33.6-227.2,91.6-320c5.1-8.1,10.6-15.8,16.5-23.3c11.6-14.8,22-30.5,31-47.1c26.3-48.4,41.1-104.1,40.7-163.2
		c-1.3-186.2-151.8-335.3-338-334.9c-138.6,0.3-257.6,84.2-309.2,204l0,0c0,0,0,0.1-0.1,0.2c-4.5,10.4-8.4,21-11.8,31.9
		c-37.5,97.9-160.3,396.2-323.4,559.3c-162.6,162.6-458.8,284.5-557.5,322.2c-11.2,3.5-22.1,7.6-32.8,12.1c-0.1,0-0.2,0.1-0.2,0.1
		l0,0c-120,51.7-204,171-204,309.9C111,1738,262,1889,448.3,1889c153.4,0,282.8-102.4,323.8-242.6
		c39.8-103.5,160.3-392.4,320.2-552.2c78.3-78.3,187.8-147.4,291.3-202.1c6.4,35.2,9.7,71.4,9.7,108.4
		c0,117.5-33.5,227.1-91.5,319.8c-5.1,8.2-10.8,16.1-16.8,23.8c-44.8,57.2-71.5,129.3-71.5,207.6c0,186.3,151,337.3,337.3,337.3
		C1737,1889,1888,1738,1888,1551.7z"/>
</g>
</svg>
